<svg width="16" height="12" viewBox="0 0 16 12" fill="none" xmlns="http://www.w3.org/2000/svg">
<path d="M8.17361 11.6035L15.4572 6.39248C15.5222 6.34595 15.5751 6.28462 15.6117 6.21357C15.6482 6.14252 15.6673 6.06378 15.6674 5.98388V5.98268C15.6672 5.90248 15.6479 5.82347 15.6111 5.75223C15.5743 5.68099 15.521 5.61957 15.4556 5.57308L8.17201 0.395677C8.09671 0.342154 8.00811 0.31042 7.91595 0.303964C7.8238 0.297507 7.73164 0.316577 7.64961 0.359078C7.56747 0.401343 7.4986 0.465461 7.45057 0.544367C7.40254 0.623272 7.37723 0.713904 7.37741 0.806278V3.24288L0.835611 3.24268C0.769532 3.24265 0.704096 3.25565 0.643044 3.28093C0.581992 3.30621 0.526523 3.34328 0.479807 3.39002C0.433091 3.43675 0.396046 3.49223 0.370789 3.55329C0.345532 3.61436 0.332559 3.6798 0.332611 3.74588L0.332811 8.25408C0.332785 8.32017 0.345783 8.38561 0.371061 8.44668C0.39634 8.50774 0.433405 8.56322 0.480136 8.60995C0.526868 8.65668 0.582351 8.69375 0.643414 8.71903C0.704477 8.74431 0.769923 8.7573 0.836011 8.75728H7.37721V11.1947C7.37721 11.3827 7.48321 11.5553 7.65041 11.6421C7.73271 11.6845 7.82512 11.7033 7.91745 11.6965C8.00978 11.6897 8.09843 11.6575 8.17361 11.6035Z" fill="black"/>
</svg>
