<svg
  id="visual"
  viewBox="0 0 900 600"
  width="900"
  height="600"
  xmlns="http://www.w3.org/2000/svg"
  xmlns:xlink="http://www.w3.org/1999/xlink"
  preserveAspectRatio="none"
  version="1.1"
>
  <path d="M0 22L6.5 33.2C13 44.3 26 66.7 39 74.3C52 82 65 75 78 64.5C91 54 104 40 117.2 43.2C130.3 46.3 143.7 66.7 156.8 76.8C170 87 183 87 196 78.3C209 69.7 222 52.3 235 43.2C248 34 261 33 274 39.5C287 46 300 60 313 64.7C326 69.3 339 64.7 352 55.2C365 45.7 378 31.3 391 35.7C404 40 417 63 430.2 67.5C443.3 72 456.7 58 469.8 53.2C483 48.3 496 52.7 509 60.2C522 67.7 535 78.3 548 72.5C561 66.7 574 44.3 587 40.3C600 36.3 613 50.7 626 60.8C639 71 652 77 665 75.2C678 73.3 691 63.7 704 59.7C717 55.7 730 57.3 743.2 62.8C756.3 68.3 769.7 77.7 782.8 74.5C796 71.3 809 55.7 822 53.2C835 50.7 848 61.3 861 61.3C874 61.3 887 50.7 893.5 45.3L900 40L900 601L893.5 601C887 601 874 601 861 601C848 601 835 601 822 601C809 601 796 601 782.8 601C769.7 601 756.3 601 743.2 601C730 601 717 601 704 601C691 601 678 601 665 601C652 601 639 601 626 601C613 601 600 601 587 601C574 601 561 601 548 601C535 601 522 601 509 601C496 601 483 601 469.8 601C456.7 601 443.3 601 430.2 601C417 601 404 601 391 601C378 601 365 601 352 601C339 601 326 601 313 601C300 601 287 601 274 601C261 601 248 601 235 601C222 601 209 601 196 601C183 601 170 601 156.8 601C143.7 601 130.3 601 117.2 601C104 601 91 601 78 601C65 601 52 601 39 601C26 601 13 601 6.5 601L0 601Z" fill="#242dc7" />
  <path d="M0 103L6.5 100.7C13 98.3 26 93.7 39 95.5C52 97.3 65 105.7 78 98.8C91 92 104 70 117.2 62.7C130.3 55.3 143.7 62.7 156.8 66.2C170 69.7 183 69.3 196 80.3C209 91.3 222 113.7 235 118.7C248 123.7 261 111.3 274 106.5C287 101.7 300 104.3 313 105.3C326 106.3 339 105.7 352 96.5C365 87.3 378 69.7 391 68.5C404 67.3 417 82.7 430.2 85C443.3 87.3 456.7 76.7 469.8 79.2C483 81.7 496 97.3 509 99.5C522 101.7 535 90.3 548 88.5C561 86.7 574 94.3 587 100C600 105.7 613 109.3 626 112.8C639 116.3 652 119.7 665 119.3C678 119 691 115 704 105.7C717 96.3 730 81.7 743.2 77C756.3 72.3 769.7 77.7 782.8 76.2C796 74.7 809 66.3 822 70.8C835 75.3 848 92.7 861 102C874 111.3 887 112.7 893.5 113.3L900 114L900 601L893.5 601C887 601 874 601 861 601C848 601 835 601 822 601C809 601 796 601 782.8 601C769.7 601 756.3 601 743.2 601C730 601 717 601 704 601C691 601 678 601 665 601C652 601 639 601 626 601C613 601 600 601 587 601C574 601 561 601 548 601C535 601 522 601 509 601C496 601 483 601 469.8 601C456.7 601 443.3 601 430.2 601C417 601 404 601 391 601C378 601 365 601 352 601C339 601 326 601 313 601C300 601 287 601 274 601C261 601 248 601 235 601C222 601 209 601 196 601C183 601 170 601 156.8 601C143.7 601 130.3 601 117.2 601C104 601 91 601 78 601C65 601 52 601 39 601C26 601 13 601 6.5 601L0 601Z" fill="#2b2cb6" />
  <path d="M0 113L6.5 110.8C13 108.7 26 104.3 39 107C52 109.7 65 119.3 78 129.2C91 139 104 149 117.2 145.3C130.3 141.7 143.7 124.3 156.8 121.8C170 119.3 183 131.7 196 141.2C209 150.7 222 157.3 235 152.5C248 147.7 261 131.3 274 125C287 118.7 300 122.3 313 125C326 127.7 339 129.3 352 133.2C365 137 378 143 391 137.3C404 131.7 417 114.3 430.2 105.5C443.3 96.7 456.7 96.3 469.8 96C483 95.7 496 95.3 509 98.8C522 102.3 535 109.7 548 120.2C561 130.7 574 144.3 587 140.5C600 136.7 613 115.3 626 115.2C639 115 652 136 665 147.5C678 159 691 161 704 164.2C717 167.3 730 171.7 743.2 166.7C756.3 161.7 769.7 147.3 782.8 136.3C796 125.3 809 117.7 822 123.5C835 129.3 848 148.7 861 157.8C874 167 887 166 893.5 165.5L900 165L900 601L893.5 601C887 601 874 601 861 601C848 601 835 601 822 601C809 601 796 601 782.8 601C769.7 601 756.3 601 743.2 601C730 601 717 601 704 601C691 601 678 601 665 601C652 601 639 601 626 601C613 601 600 601 587 601C574 601 561 601 548 601C535 601 522 601 509 601C496 601 483 601 469.8 601C456.7 601 443.3 601 430.2 601C417 601 404 601 391 601C378 601 365 601 352 601C339 601 326 601 313 601C300 601 287 601 274 601C261 601 248 601 235 601C222 601 209 601 196 601C183 601 170 601 156.8 601C143.7 601 130.3 601 117.2 601C104 601 91 601 78 601C65 601 52 601 39 601C26 601 13 601 6.5 601L0 601Z" fill="#3342ad" />
  <path d="M0 186L6.5 183C13 180 26 174 39 177C52 180 65 192 78 192.8C91 193.7 104 183.3 117.2 180.5C130.3 177.7 143.7 182.3 156.8 184.7C170 187 183 187 196 186.3C209 185.7 222 184.3 235 183.8C248 183.3 261 183.7 274 178.3C287 173 300 162 313 164.2C326 166.3 339 181.7 352 194C365 206.3 378 215.7 391 210C404 204.3 417 183.7 430.2 175C443.3 166.3 456.7 169.7 469.8 172.7C483 175.7 496 178.3 509 178.7C522 179 535 177 548 173C561 169 574 163 587 171.8C600 180.7 613 204.3 626 206.8C639 209.3 652 190.7 665 188.5C678 186.3 691 200.7 704 202.7C717 204.7 730 194.3 743.2 195.3C756.3 196.3 769.7 208.7 782.8 211.2C796 213.7 809 206.3 822 202.3C835 198.3 848 197.7 861 191C874 184.3 887 171.7 893.5 165.3L900 159L900 601L893.5 601C887 601 874 601 861 601C848 601 835 601 822 601C809 601 796 601 782.8 601C769.7 601 756.3 601 743.2 601C730 601 717 601 704 601C691 601 678 601 665 601C652 601 639 601 626 601C613 601 600 601 587 601C574 601 561 601 548 601C535 601 522 601 509 601C496 601 483 601 469.8 601C456.7 601 443.3 601 430.2 601C417 601 404 601 391 601C378 601 365 601 352 601C339 601 326 601 313 601C300 601 287 601 274 601C261 601 248 601 235 601C222 601 209 601 196 601C183 601 170 601 156.8 601C143.7 601 130.3 601 117.2 601C104 601 91 601 78 601C65 601 52 601 39 601C26 601 13 601 6.5 601L0 601Z" fill="#4252b4" />
  <path d="M0 190L6.5 198.2C13 206.3 26 222.7 39 225.8C52 229 65 219 78 213.3C91 207.7 104 206.3 117.2 208.3C130.3 210.3 143.7 215.7 156.8 212.5C170 209.3 183 197.7 196 202.5C209 207.3 222 228.7 235 237.8C248 247 261 244 274 240.8C287 237.7 300 234.3 313 230.5C326 226.7 339 222.3 352 223.8C365 225.3 378 232.7 391 234.3C404 236 417 232 430.2 225.3C443.3 218.7 456.7 209.3 469.8 215.8C483 222.3 496 244.7 509 245.2C522 245.7 535 224.3 548 216.8C561 209.3 574 215.7 587 219C600 222.3 613 222.7 626 224.3C639 226 652 229 665 231.5C678 234 691 236 704 242.8C717 249.7 730 261.3 743.2 252.5C756.3 243.7 769.7 214.3 782.8 201.5C796 188.7 809 192.3 822 201.7C835 211 848 226 861 230.2C874 234.3 887 227.7 893.5 224.3L900 221L900 601L893.5 601C887 601 874 601 861 601C848 601 835 601 822 601C809 601 796 601 782.8 601C769.7 601 756.3 601 743.2 601C730 601 717 601 704 601C691 601 678 601 665 601C652 601 639 601 626 601C613 601 600 601 587 601C574 601 561 601 548 601C535 601 522 601 509 601C496 601 483 601 469.8 601C456.7 601 443.3 601 430.2 601C417 601 404 601 391 601C378 601 365 601 352 601C339 601 326 601 313 601C300 601 287 601 274 601C261 601 248 601 235 601C222 601 209 601 196 601C183 601 170 601 156.8 601C143.7 601 130.3 601 117.2 601C104 601 91 601 78 601C65 601 52 601 39 601C26 601 13 601 6.5 601L0 601Z" fill="#5063bb" />
  <path d="M0 278L6.5 271C13 264 26 250 39 248.5C52 247 65 258 78 269C91 280 104 291 117.2 293.5C130.3 296 143.7 290 156.8 288.8C170 287.7 183 291.3 196 288.2C209 285 222 275 235 270C248 265 261 265 274 260.7C287 256.3 300 247.7 313 252.8C326 258 339 277 352 278.3C365 279.7 378 263.3 391 260.8C404 258.3 417 269.7 430.2 276.3C443.3 283 456.7 285 469.8 277.7C483 270.3 496 253.7 509 254.2C522 254.7 535 272.3 548 271.2C561 270 574 250 587 246.2C600 242.3 613 254.7 626 259.3C639 264 652 261 665 260.8C678 260.7 691 263.3 704 264.7C717 266 730 266 743.2 261.2C756.3 256.3 769.7 246.7 782.8 241.2C796 235.7 809 234.3 822 247.8C835 261.3 848 289.7 861 293.7C874 297.7 887 277.3 893.5 267.2L900 257L900 601L893.5 601C887 601 874 601 861 601C848 601 835 601 822 601C809 601 796 601 782.8 601C769.7 601 756.3 601 743.2 601C730 601 717 601 704 601C691 601 678 601 665 601C652 601 639 601 626 601C613 601 600 601 587 601C574 601 561 601 548 601C535 601 522 601 509 601C496 601 483 601 469.8 601C456.7 601 443.3 601 430.2 601C417 601 404 601 391 601C378 601 365 601 352 601C339 601 326 601 313 601C300 601 287 601 274 601C261 601 248 601 235 601C222 601 209 601 196 601C183 601 170 601 156.8 601C143.7 601 130.3 601 117.2 601C104 601 91 601 78 601C65 601 52 601 39 601C26 601 13 601 6.5 601L0 601Z" fill="#6073c0" />
  <path d="M0 367L6.5 367.2C13 367.3 26 367.7 39 361.3C52 355 65 342 78 333.5C91 325 104 321 117.2 314.2C130.3 307.3 143.7 297.7 156.8 293.7C170 289.7 183 291.3 196 301.5C209 311.7 222 330.3 235 341C248 351.7 261 354.3 274 357.3C287 360.3 300 363.7 313 354.2C326 344.7 339 322.3 352 319.3C365 316.3 378 332.7 391 333.7C404 334.7 417 320.3 430.2 322C443.3 323.7 456.7 341.3 469.8 337.5C483 333.7 496 308.3 509 308.3C522 308.3 535 333.7 548 341C561 348.3 574 337.7 587 331.8C600 326 613 325 626 327.3C639 329.7 652 335.3 665 327.8C678 320.3 691 299.7 704 295.5C717 291.3 730 303.7 743.2 309.5C756.3 315.3 769.7 314.7 782.8 313.2C796 311.7 809 309.3 822 314.2C835 319 848 331 861 341C874 351 887 359 893.5 363L900 367L900 601L893.5 601C887 601 874 601 861 601C848 601 835 601 822 601C809 601 796 601 782.8 601C769.7 601 756.3 601 743.2 601C730 601 717 601 704 601C691 601 678 601 665 601C652 601 639 601 626 601C613 601 600 601 587 601C574 601 561 601 548 601C535 601 522 601 509 601C496 601 483 601 469.8 601C456.7 601 443.3 601 430.2 601C417 601 404 601 391 601C378 601 365 601 352 601C339 601 326 601 313 601C300 601 287 601 274 601C261 601 248 601 235 601C222 601 209 601 196 601C183 601 170 601 156.8 601C143.7 601 130.3 601 117.2 601C104 601 91 601 78 601C65 601 52 601 39 601C26 601 13 601 6.5 601L0 601Z" fill="#7083c5" />
  <path d="M0 362L6.5 370.2C13 378.3 26 394.7 39 397.8C52 401 65 391 78 377.7C91 364.3 104 347.7 117.2 346.8C130.3 346 143.7 361 156.8 362.2C170 363.3 183 350.7 196 347.8C209 345 222 352 235 350.3C248 348.7 261 338.3 274 346.2C287 354 300 380 313 390.7C326 401.3 339 396.7 352 388.7C365 380.7 378 369.3 391 371.3C404 373.3 417 388.7 430.2 396.7C443.3 404.7 456.7 405.3 469.8 401C483 396.7 496 387.3 509 376.7C522 366 535 354 548 357C561 360 574 378 587 374.8C600 371.7 613 347.3 626 341.2C639 335 652 347 665 350.5C678 354 691 349 704 345.2C717 341.3 730 338.7 743.2 347.2C756.3 355.7 769.7 375.3 782.8 378.8C796 382.3 809 369.7 822 367.5C835 365.3 848 373.7 861 373.2C874 372.7 887 363.3 893.5 358.7L900 354L900 601L893.5 601C887 601 874 601 861 601C848 601 835 601 822 601C809 601 796 601 782.8 601C769.7 601 756.3 601 743.2 601C730 601 717 601 704 601C691 601 678 601 665 601C652 601 639 601 626 601C613 601 600 601 587 601C574 601 561 601 548 601C535 601 522 601 509 601C496 601 483 601 469.8 601C456.7 601 443.3 601 430.2 601C417 601 404 601 391 601C378 601 365 601 352 601C339 601 326 601 313 601C300 601 287 601 274 601C261 601 248 601 235 601C222 601 209 601 196 601C183 601 170 601 156.8 601C143.7 601 130.3 601 117.2 601C104 601 91 601 78 601C65 601 52 601 39 601C26 601 13 601 6.5 601L0 601Z" fill="#8193ca" />
  <path d="M0 457L6.5 451.2C13 445.3 26 433.7 39 426C52 418.3 65 414.7 78 407C91 399.3 104 387.7 117.2 392.3C130.3 397 143.7 418 156.8 426C170 434 183 429 196 431.8C209 434.7 222 445.3 235 446.2C248 447 261 438 274 423.5C287 409 300 389 313 387.7C326 386.3 339 403.7 352 417.7C365 431.7 378 442.3 391 446.2C404 450 417 447 430.2 444.3C443.3 441.7 456.7 439.3 469.8 430.8C483 422.3 496 407.7 509 396.7C522 385.7 535 378.3 548 378.8C561 379.3 574 387.7 587 398C600 408.3 613 420.7 626 422.8C639 425 652 417 665 415.7C678 414.3 691 419.7 704 423.7C717 427.7 730 430.3 743.2 434C756.3 437.7 769.7 442.3 782.8 439.8C796 437.3 809 427.7 822 417.5C835 407.3 848 396.7 861 396C874 395.3 887 404.7 893.5 409.3L900 414L900 601L893.5 601C887 601 874 601 861 601C848 601 835 601 822 601C809 601 796 601 782.8 601C769.7 601 756.3 601 743.2 601C730 601 717 601 704 601C691 601 678 601 665 601C652 601 639 601 626 601C613 601 600 601 587 601C574 601 561 601 548 601C535 601 522 601 509 601C496 601 483 601 469.8 601C456.7 601 443.3 601 430.2 601C417 601 404 601 391 601C378 601 365 601 352 601C339 601 326 601 313 601C300 601 287 601 274 601C261 601 248 601 235 601C222 601 209 601 196 601C183 601 170 601 156.8 601C143.7 601 130.3 601 117.2 601C104 601 91 601 78 601C65 601 52 601 39 601C26 601 13 601 6.5 601L0 601Z" fill="#94a3cd" />
  <path d="M0 469L6.5 472.3C13 475.7 26 482.3 39 482.5C52 482.7 65 476.3 78 471.5C91 466.7 104 463.3 117.2 461.7C130.3 460 143.7 460 156.8 466.7C170 473.3 183 486.7 196 481.8C209 477 222 454 235 450.8C248 447.7 261 464.3 274 469.3C287 474.3 300 467.7 313 468.7C326 469.7 339 478.3 352 476.8C365 475.3 378 463.7 391 464.8C404 466 417 480 430.2 488.7C443.3 497.3 456.7 500.7 469.8 499.2C483 497.7 496 491.3 509 481C522 470.7 535 456.3 548 448.2C561 440 574 438 587 445C600 452 613 468 626 478.2C639 488.3 652 492.7 665 482.2C678 471.7 691 446.3 704 439.5C717 432.7 730 444.3 743.2 443.5C756.3 442.7 769.7 429.3 782.8 423.7C796 418 809 420 822 430.2C835 440.3 848 458.7 861 461.8C874 465 887 453 893.5 447L900 441L900 601L893.5 601C887 601 874 601 861 601C848 601 835 601 822 601C809 601 796 601 782.8 601C769.7 601 756.3 601 743.2 601C730 601 717 601 704 601C691 601 678 601 665 601C652 601 639 601 626 601C613 601 600 601 587 601C574 601 561 601 548 601C535 601 522 601 509 601C496 601 483 601 469.8 601C456.7 601 443.3 601 430.2 601C417 601 404 601 391 601C378 601 365 601 352 601C339 601 326 601 313 601C300 601 287 601 274 601C261 601 248 601 235 601C222 601 209 601 196 601C183 601 170 601 156.8 601C143.7 601 130.3 601 117.2 601C104 601 91 601 78 601C65 601 52 601 39 601C26 601 13 601 6.5 601L0 601Z" fill="#a7b3d1" />
  <path d="M0 498L6.5 503.7C13 509.3 26 520.7 39 529C52 537.3 65 542.7 78 534.3C91 526 104 504 117.2 497.2C130.3 490.3 143.7 498.7 156.8 506.3C170 514 183 521 196 520C209 519 222 510 235 499.7C248 489.3 261 477.7 274 471.8C287 466 300 466 313 467.5C326 469 339 472 352 478.5C365 485 378 495 391 501.5C404 508 417 511 430.2 517.5C443.3 524 456.7 534 469.8 534.2C483 534.3 496 524.7 509 511.7C522 498.7 535 482.3 548 473.3C561 464.3 574 462.7 587 463.3C600 464 613 467 626 479.3C639 491.7 652 513.3 665 522.2C678 531 691 527 704 524.3C717 521.7 730 520.3 743.2 516.7C756.3 513 769.7 507 782.8 510.2C796 513.3 809 525.7 822 532.3C835 539 848 540 861 534.8C874 529.7 887 518.3 893.5 512.7L900 507L900 601L893.5 601C887 601 874 601 861 601C848 601 835 601 822 601C809 601 796 601 782.8 601C769.7 601 756.3 601 743.2 601C730 601 717 601 704 601C691 601 678 601 665 601C652 601 639 601 626 601C613 601 600 601 587 601C574 601 561 601 548 601C535 601 522 601 509 601C496 601 483 601 469.8 601C456.7 601 443.3 601 430.2 601C417 601 404 601 391 601C378 601 365 601 352 601C339 601 326 601 313 601C300 601 287 601 274 601C261 601 248 601 235 601C222 601 209 601 196 601C183 601 170 601 156.8 601C143.7 601 130.3 601 117.2 601C104 601 91 601 78 601C65 601 52 601 39 601C26 601 13 601 6.5 601L0 601Z" fill="#bbc2d3" />
  <path d="M0 507L6.5 516.2C13 525.3 26 543.7 39 544.7C52 545.7 65 529.3 78 529.5C91 529.7 104 546.3 117.2 550.7C130.3 555 143.7 547 156.8 546.3C170 545.7 183 552.3 196 557.2C209 562 222 565 235 566.5C248 568 261 568 274 570.3C287 572.7 300 577.3 313 568.5C326 559.7 339 537.3 352 528C365 518.7 378 522.3 391 531.5C404 540.7 417 555.3 430.2 567.5C443.3 579.7 456.7 589.3 469.8 584.3C483 579.3 496 559.7 509 552.8C522 546 535 552 548 547.5C561 543 574 528 587 529.8C600 531.7 613 550.3 626 560.7C639 571 652 573 665 569.3C678 565.7 691 556.3 704 552.5C717 548.7 730 550.3 743.2 553.5C756.3 556.7 769.7 561.3 782.8 554.2C796 547 809 528 822 521.7C835 515.3 848 521.7 861 527.2C874 532.7 887 537.3 893.5 539.7L900 542L900 601L893.5 601C887 601 874 601 861 601C848 601 835 601 822 601C809 601 796 601 782.8 601C769.7 601 756.3 601 743.2 601C730 601 717 601 704 601C691 601 678 601 665 601C652 601 639 601 626 601C613 601 600 601 587 601C574 601 561 601 548 601C535 601 522 601 509 601C496 601 483 601 469.8 601C456.7 601 443.3 601 430.2 601C417 601 404 601 391 601C378 601 365 601 352 601C339 601 326 601 313 601C300 601 287 601 274 601C261 601 248 601 235 601C222 601 209 601 196 601C183 601 170 601 156.8 601C143.7 601 130.3 601 117.2 601C104 601 91 601 78 601C65 601 52 601 39 601C26 601 13 601 6.5 601L0 601Z" fill="#d0d2d6" />
</svg>