<svg id="visual" viewBox="0 0 900 600" width="900" height="600" xmlns="http://www.w3.org/2000/svg" preserveAspectRatio="none" xmlns:xlink="http://www.w3.org/1999/xlink" version="1.1"><path d="M0 137L6.5 131C13 125 26 113 39 112C52 111 65 121 78 120.2C91 119.3 104 107.7 117.2 99.8C130.3 92 143.7 88 156.8 83.2C170 78.3 183 72.7 196 66.2C209 59.7 222 52.3 235 48.8C248 45.3 261 45.7 274 58.7C287 71.7 300 97.3 313 102.8C326 108.3 339 93.7 352 93C365 92.3 378 105.7 391 116.2C404 126.7 417 134.3 430.2 123C443.3 111.7 456.7 81.3 469.8 70.3C483 59.3 496 67.7 509 75.5C522 83.3 535 90.7 548 98.7C561 106.7 574 115.3 587 117.8C600 120.3 613 116.7 626 120.3C639 124 652 135 665 125.3C678 115.7 691 85.3 704 68.8C717 52.3 730 49.7 743.2 47.2C756.3 44.7 769.7 42.3 782.8 55.5C796 68.7 809 97.3 822 97.8C835 98.3 848 70.7 861 75.2C874 79.7 887 116.3 893.5 134.7L900 153L900 601L893.5 601C887 601 874 601 861 601C848 601 835 601 822 601C809 601 796 601 782.8 601C769.7 601 756.3 601 743.2 601C730 601 717 601 704 601C691 601 678 601 665 601C652 601 639 601 626 601C613 601 600 601 587 601C574 601 561 601 548 601C535 601 522 601 509 601C496 601 483 601 469.8 601C456.7 601 443.3 601 430.2 601C417 601 404 601 391 601C378 601 365 601 352 601C339 601 326 601 313 601C300 601 287 601 274 601C261 601 248 601 235 601C222 601 209 601 196 601C183 601 170 601 156.8 601C143.7 601 130.3 601 117.2 601C104 601 91 601 78 601C65 601 52 601 39 601C26 601 13 601 6.5 601L0 601Z" fill="#202020"></path><path d="M0 105L6.5 104.3C13 103.7 26 102.3 39 115C52 127.7 65 154.3 78 155.8C91 157.3 104 133.7 117.2 118.7C130.3 103.7 143.7 97.3 156.8 108.5C170 119.7 183 148.3 196 155C209 161.7 222 146.3 235 141C248 135.7 261 140.3 274 133.5C287 126.7 300 108.3 313 106.7C326 105 339 120 352 130.2C365 140.3 378 145.7 391 139.8C404 134 417 117 430.2 115.3C443.3 113.7 456.7 127.3 469.8 138.7C483 150 496 159 509 159.8C522 160.7 535 153.3 548 142.3C561 131.3 574 116.7 587 111.8C600 107 613 112 626 120.7C639 129.3 652 141.7 665 146.5C678 151.3 691 148.7 704 153.7C717 158.7 730 171.3 743.2 168.5C756.3 165.7 769.7 147.3 782.8 145.8C796 144.3 809 159.7 822 160.8C835 162 848 149 861 143.7C874 138.3 887 140.7 893.5 141.8L900 143L900 601L893.5 601C887 601 874 601 861 601C848 601 835 601 822 601C809 601 796 601 782.8 601C769.7 601 756.3 601 743.2 601C730 601 717 601 704 601C691 601 678 601 665 601C652 601 639 601 626 601C613 601 600 601 587 601C574 601 561 601 548 601C535 601 522 601 509 601C496 601 483 601 469.8 601C456.7 601 443.3 601 430.2 601C417 601 404 601 391 601C378 601 365 601 352 601C339 601 326 601 313 601C300 601 287 601 274 601C261 601 248 601 235 601C222 601 209 601 196 601C183 601 170 601 156.8 601C143.7 601 130.3 601 117.2 601C104 601 91 601 78 601C65 601 52 601 39 601C26 601 13 601 6.5 601L0 601Z" fill="#25222d"></path><path d="M0 205L6.5 192.5C13 180 26 155 39 151.7C52 148.3 65 166.7 78 174.5C91 182.3 104 179.7 117.2 178.5C130.3 177.3 143.7 177.7 156.8 170.8C170 164 183 150 196 146.7C209 143.3 222 150.7 235 151C248 151.3 261 144.7 274 151.5C287 158.3 300 178.7 313 193C326 207.3 339 215.7 352 208.3C365 201 378 178 391 166.2C404 154.3 417 153.7 430.2 163.5C443.3 173.3 456.7 193.7 469.8 198.3C483 203 496 192 509 188.5C522 185 535 189 548 186C561 183 574 173 587 165.7C600 158.3 613 153.7 626 155.3C639 157 652 165 665 167.5C678 170 691 167 704 168.3C717 169.7 730 175.3 743.2 180.7C756.3 186 769.7 191 782.8 194.8C796 198.7 809 201.3 822 197.5C835 193.7 848 183.3 861 182.2C874 181 887 189 893.5 193L900 197L900 601L893.5 601C887 601 874 601 861 601C848 601 835 601 822 601C809 601 796 601 782.8 601C769.7 601 756.3 601 743.2 601C730 601 717 601 704 601C691 601 678 601 665 601C652 601 639 601 626 601C613 601 600 601 587 601C574 601 561 601 548 601C535 601 522 601 509 601C496 601 483 601 469.8 601C456.7 601 443.3 601 430.2 601C417 601 404 601 391 601C378 601 365 601 352 601C339 601 326 601 313 601C300 601 287 601 274 601C261 601 248 601 235 601C222 601 209 601 196 601C183 601 170 601 156.8 601C143.7 601 130.3 601 117.2 601C104 601 91 601 78 601C65 601 52 601 39 601C26 601 13 601 6.5 601L0 601Z" fill="#29233b"></path><path d="M0 177L6.5 191.3C13 205.7 26 234.3 39 238.2C52 242 65 221 78 209C91 197 104 194 117.2 201.2C130.3 208.3 143.7 225.7 156.8 237.5C170 249.3 183 255.7 196 247.5C209 239.3 222 216.7 235 201.7C248 186.7 261 179.3 274 180.5C287 181.7 300 191.3 313 197C326 202.7 339 204.3 352 199.5C365 194.7 378 183.3 391 178C404 172.7 417 173.3 430.2 176.2C443.3 179 456.7 184 469.8 186C483 188 496 187 509 192C522 197 535 208 548 221.5C561 235 574 251 587 247.7C600 244.3 613 221.7 626 221.3C639 221 652 243 665 246.3C678 249.7 691 234.3 704 226.2C717 218 730 217 743.2 209.8C756.3 202.7 769.7 189.3 782.8 182C796 174.7 809 173.3 822 185.7C835 198 848 224 861 239.2C874 254.3 887 258.7 893.5 260.8L900 263L900 601L893.5 601C887 601 874 601 861 601C848 601 835 601 822 601C809 601 796 601 782.8 601C769.7 601 756.3 601 743.2 601C730 601 717 601 704 601C691 601 678 601 665 601C652 601 639 601 626 601C613 601 600 601 587 601C574 601 561 601 548 601C535 601 522 601 509 601C496 601 483 601 469.8 601C456.7 601 443.3 601 430.2 601C417 601 404 601 391 601C378 601 365 601 352 601C339 601 326 601 313 601C300 601 287 601 274 601C261 601 248 601 235 601C222 601 209 601 196 601C183 601 170 601 156.8 601C143.7 601 130.3 601 117.2 601C104 601 91 601 78 601C65 601 52 601 39 601C26 601 13 601 6.5 601L0 601Z" fill="#2d2549"></path><path d="M0 271L6.5 277.3C13 283.7 26 296.3 39 293.7C52 291 65 273 78 261.8C91 250.7 104 246.3 117.2 247.3C130.3 248.3 143.7 254.7 156.8 261.8C170 269 183 277 196 281.7C209 286.3 222 287.7 235 283.2C248 278.7 261 268.3 274 270.5C287 272.7 300 287.3 313 287.3C326 287.3 339 272.7 352 264.2C365 255.7 378 253.3 391 253.8C404 254.3 417 257.7 430.2 251.8C443.3 246 456.7 231 469.8 229.7C483 228.3 496 240.7 509 245C522 249.3 535 245.7 548 249.8C561 254 574 266 587 268C600 270 613 262 626 264C639 266 652 278 665 285.5C678 293 691 296 704 292.2C717 288.3 730 277.7 743.2 269.5C756.3 261.3 769.7 255.7 782.8 256.3C796 257 809 264 822 268.8C835 273.7 848 276.3 861 276.3C874 276.3 887 273.7 893.5 272.3L900 271L900 601L893.5 601C887 601 874 601 861 601C848 601 835 601 822 601C809 601 796 601 782.8 601C769.7 601 756.3 601 743.2 601C730 601 717 601 704 601C691 601 678 601 665 601C652 601 639 601 626 601C613 601 600 601 587 601C574 601 561 601 548 601C535 601 522 601 509 601C496 601 483 601 469.8 601C456.7 601 443.3 601 430.2 601C417 601 404 601 391 601C378 601 365 601 352 601C339 601 326 601 313 601C300 601 287 601 274 601C261 601 248 601 235 601C222 601 209 601 196 601C183 601 170 601 156.8 601C143.7 601 130.3 601 117.2 601C104 601 91 601 78 601C65 601 52 601 39 601C26 601 13 601 6.5 601L0 601Z" fill="#2f2658"></path><path d="M0 281L6.5 285.5C13 290 26 299 39 303C52 307 65 306 78 301C91 296 104 287 117.2 285.2C130.3 283.3 143.7 288.7 156.8 300C170 311.3 183 328.7 196 324.3C209 320 222 294 235 293C248 292 261 316 274 317.8C287 319.7 300 299.3 313 297.2C326 295 339 311 352 317.2C365 323.3 378 319.7 391 319C404 318.3 417 320.7 430.2 318C443.3 315.3 456.7 307.7 469.8 308.2C483 308.7 496 317.3 509 317.3C522 317.3 535 308.7 548 305.7C561 302.7 574 305.3 587 309.2C600 313 613 318 626 312.5C639 307 652 291 665 281.2C678 271.3 691 267.7 704 273.2C717 278.7 730 293.3 743.2 295.5C756.3 297.7 769.7 287.3 782.8 292C796 296.7 809 316.3 822 321.2C835 326 848 316 861 307C874 298 887 290 893.5 286L900 282L900 601L893.5 601C887 601 874 601 861 601C848 601 835 601 822 601C809 601 796 601 782.8 601C769.7 601 756.3 601 743.2 601C730 601 717 601 704 601C691 601 678 601 665 601C652 601 639 601 626 601C613 601 600 601 587 601C574 601 561 601 548 601C535 601 522 601 509 601C496 601 483 601 469.8 601C456.7 601 443.3 601 430.2 601C417 601 404 601 391 601C378 601 365 601 352 601C339 601 326 601 313 601C300 601 287 601 274 601C261 601 248 601 235 601C222 601 209 601 196 601C183 601 170 601 156.8 601C143.7 601 130.3 601 117.2 601C104 601 91 601 78 601C65 601 52 601 39 601C26 601 13 601 6.5 601L0 601Z" fill="#312766"></path><path d="M0 335L6.5 330.2C13 325.3 26 315.7 39 316.7C52 317.7 65 329.3 78 337.7C91 346 104 351 117.2 353.2C130.3 355.3 143.7 354.7 156.8 358.2C170 361.7 183 369.3 196 367.2C209 365 222 353 235 342.7C248 332.3 261 323.7 274 319C287 314.3 300 313.7 313 318.2C326 322.7 339 332.3 352 342.7C365 353 378 364 391 366C404 368 417 361 430.2 361.3C443.3 361.7 456.7 369.3 469.8 370.8C483 372.3 496 367.7 509 359.3C522 351 535 339 548 337.2C561 335.3 574 343.7 587 346C600 348.3 613 344.7 626 347.8C639 351 652 361 665 356.5C678 352 691 333 704 330.7C717 328.3 730 342.7 743.2 353C756.3 363.3 769.7 369.7 782.8 363C796 356.3 809 336.7 822 336.8C835 337 848 357 861 364.7C874 372.3 887 367.7 893.5 365.3L900 363L900 601L893.5 601C887 601 874 601 861 601C848 601 835 601 822 601C809 601 796 601 782.8 601C769.7 601 756.3 601 743.2 601C730 601 717 601 704 601C691 601 678 601 665 601C652 601 639 601 626 601C613 601 600 601 587 601C574 601 561 601 548 601C535 601 522 601 509 601C496 601 483 601 469.8 601C456.7 601 443.3 601 430.2 601C417 601 404 601 391 601C378 601 365 601 352 601C339 601 326 601 313 601C300 601 287 601 274 601C261 601 248 601 235 601C222 601 209 601 196 601C183 601 170 601 156.8 601C143.7 601 130.3 601 117.2 601C104 601 91 601 78 601C65 601 52 601 39 601C26 601 13 601 6.5 601L0 601Z" fill="#322976"></path><path d="M0 406L6.5 402C13 398 26 390 39 387.5C52 385 65 388 78 389.8C91 391.7 104 392.3 117.2 388.7C130.3 385 143.7 377 156.8 380.5C170 384 183 399 196 407.8C209 416.7 222 419.3 235 419C248 418.7 261 415.3 274 404.3C287 393.3 300 374.7 313 370.5C326 366.3 339 376.7 352 381.7C365 386.7 378 386.3 391 391C404 395.7 417 405.3 430.2 406.5C443.3 407.7 456.7 400.3 469.8 400C483 399.7 496 406.3 509 404.8C522 403.3 535 393.7 548 388.3C561 383 574 382 587 382.7C600 383.3 613 385.7 626 380.3C639 375 652 362 665 357.2C678 352.3 691 355.7 704 364.7C717 373.7 730 388.3 743.2 389.2C756.3 390 769.7 377 782.8 369C796 361 809 358 822 367.8C835 377.7 848 400.3 861 399.8C874 399.3 887 375.7 893.5 363.8L900 352L900 601L893.5 601C887 601 874 601 861 601C848 601 835 601 822 601C809 601 796 601 782.8 601C769.7 601 756.3 601 743.2 601C730 601 717 601 704 601C691 601 678 601 665 601C652 601 639 601 626 601C613 601 600 601 587 601C574 601 561 601 548 601C535 601 522 601 509 601C496 601 483 601 469.8 601C456.7 601 443.3 601 430.2 601C417 601 404 601 391 601C378 601 365 601 352 601C339 601 326 601 313 601C300 601 287 601 274 601C261 601 248 601 235 601C222 601 209 601 196 601C183 601 170 601 156.8 601C143.7 601 130.3 601 117.2 601C104 601 91 601 78 601C65 601 52 601 39 601C26 601 13 601 6.5 601L0 601Z" fill="#332a85"></path><path d="M0 411L6.5 412.3C13 413.7 26 416.3 39 421.8C52 427.3 65 435.7 78 435C91 434.3 104 424.7 117.2 426.2C130.3 427.7 143.7 440.3 156.8 447.2C170 454 183 455 196 450C209 445 222 434 235 434.2C248 434.3 261 445.7 274 447.8C287 450 300 443 313 435C326 427 339 418 352 415.3C365 412.7 378 416.3 391 425C404 433.7 417 447.3 430.2 447.8C443.3 448.3 456.7 435.7 469.8 425.8C483 416 496 409 509 404.3C522 399.7 535 397.3 548 404.5C561 411.7 574 428.3 587 432.3C600 436.3 613 427.7 626 420C639 412.3 652 405.7 665 403.5C678 401.3 691 403.7 704 413C717 422.3 730 438.7 743.2 444.5C756.3 450.3 769.7 445.7 782.8 442.7C796 439.7 809 438.3 822 435.8C835 433.3 848 429.7 861 433.7C874 437.7 887 449.3 893.5 455.2L900 461L900 601L893.5 601C887 601 874 601 861 601C848 601 835 601 822 601C809 601 796 601 782.8 601C769.7 601 756.3 601 743.2 601C730 601 717 601 704 601C691 601 678 601 665 601C652 601 639 601 626 601C613 601 600 601 587 601C574 601 561 601 548 601C535 601 522 601 509 601C496 601 483 601 469.8 601C456.7 601 443.3 601 430.2 601C417 601 404 601 391 601C378 601 365 601 352 601C339 601 326 601 313 601C300 601 287 601 274 601C261 601 248 601 235 601C222 601 209 601 196 601C183 601 170 601 156.8 601C143.7 601 130.3 601 117.2 601C104 601 91 601 78 601C65 601 52 601 39 601C26 601 13 601 6.5 601L0 601Z" fill="#312b95"></path><path d="M0 450L6.5 454.7C13 459.3 26 468.7 39 468.2C52 467.7 65 457.3 78 459.7C91 462 104 477 117.2 485.5C130.3 494 143.7 496 156.8 488.3C170 480.7 183 463.3 196 459.7C209 456 222 466 235 474.8C248 483.7 261 491.3 274 494.7C287 498 300 497 313 488.5C326 480 339 464 352 458C365 452 378 456 391 457.5C404 459 417 458 430.2 455C443.3 452 456.7 447 469.8 451.7C483 456.3 496 470.7 509 469.8C522 469 535 453 548 449.7C561 446.3 574 455.7 587 459.2C600 462.7 613 460.3 626 462.3C639 464.3 652 470.7 665 468.7C678 466.7 691 456.3 704 457.8C717 459.3 730 472.7 743.2 477C756.3 481.3 769.7 476.7 782.8 472.5C796 468.3 809 464.7 822 464.7C835 464.7 848 468.3 861 468C874 467.7 887 463.3 893.5 461.2L900 459L900 601L893.5 601C887 601 874 601 861 601C848 601 835 601 822 601C809 601 796 601 782.8 601C769.7 601 756.3 601 743.2 601C730 601 717 601 704 601C691 601 678 601 665 601C652 601 639 601 626 601C613 601 600 601 587 601C574 601 561 601 548 601C535 601 522 601 509 601C496 601 483 601 469.8 601C456.7 601 443.3 601 430.2 601C417 601 404 601 391 601C378 601 365 601 352 601C339 601 326 601 313 601C300 601 287 601 274 601C261 601 248 601 235 601C222 601 209 601 196 601C183 601 170 601 156.8 601C143.7 601 130.3 601 117.2 601C104 601 91 601 78 601C65 601 52 601 39 601C26 601 13 601 6.5 601L0 601Z" fill="#2f2ca6"></path><path d="M0 487L6.5 488C13 489 26 491 39 498.5C52 506 65 519 78 519.2C91 519.3 104 506.7 117.2 500.2C130.3 493.7 143.7 493.3 156.8 491.3C170 489.3 183 485.7 196 492.3C209 499 222 516 235 525C248 534 261 535 274 531.5C287 528 300 520 313 511.2C326 502.3 339 492.7 352 489.3C365 486 378 489 391 495.3C404 501.7 417 511.3 430.2 513C443.3 514.7 456.7 508.3 469.8 510.3C483 512.3 496 522.7 509 525.3C522 528 535 523 548 523.3C561 523.7 574 529.3 587 530.5C600 531.7 613 528.3 626 519.8C639 511.3 652 497.7 665 499.5C678 501.3 691 518.7 704 523C717 527.3 730 518.7 743.2 510.7C756.3 502.7 769.7 495.3 782.8 498.7C796 502 809 516 822 520.2C835 524.3 848 518.7 861 515.3C874 512 887 511 893.5 510.5L900 510L900 601L893.5 601C887 601 874 601 861 601C848 601 835 601 822 601C809 601 796 601 782.8 601C769.7 601 756.3 601 743.2 601C730 601 717 601 704 601C691 601 678 601 665 601C652 601 639 601 626 601C613 601 600 601 587 601C574 601 561 601 548 601C535 601 522 601 509 601C496 601 483 601 469.8 601C456.7 601 443.3 601 430.2 601C417 601 404 601 391 601C378 601 365 601 352 601C339 601 326 601 313 601C300 601 287 601 274 601C261 601 248 601 235 601C222 601 209 601 196 601C183 601 170 601 156.8 601C143.7 601 130.3 601 117.2 601C104 601 91 601 78 601C65 601 52 601 39 601C26 601 13 601 6.5 601L0 601Z" fill="#2b2cb6"></path><path d="M0 551L6.5 547.2C13 543.3 26 535.7 39 533.7C52 531.7 65 535.3 78 535.3C91 535.3 104 531.7 117.2 538.2C130.3 544.7 143.7 561.3 156.8 568.5C170 575.7 183 573.3 196 573.3C209 573.3 222 575.7 235 570.5C248 565.3 261 552.7 274 543.8C287 535 300 530 313 535C326 540 339 555 352 564C365 573 378 576 391 575.3C404 574.7 417 570.3 430.2 566.5C443.3 562.7 456.7 559.3 469.8 555.3C483 551.3 496 546.7 509 544.2C522 541.7 535 541.3 548 541.2C561 541 574 541 587 543.3C600 545.7 613 550.3 626 550.3C639 550.3 652 545.7 665 546.2C678 546.7 691 552.3 704 552.8C717 553.3 730 548.7 743.2 545.7C756.3 542.7 769.7 541.3 782.8 540.8C796 540.3 809 540.7 822 538.5C835 536.3 848 531.7 861 529.8C874 528 887 529 893.5 529.5L900 530L900 601L893.5 601C887 601 874 601 861 601C848 601 835 601 822 601C809 601 796 601 782.8 601C769.7 601 756.3 601 743.2 601C730 601 717 601 704 601C691 601 678 601 665 601C652 601 639 601 626 601C613 601 600 601 587 601C574 601 561 601 548 601C535 601 522 601 509 601C496 601 483 601 469.8 601C456.7 601 443.3 601 430.2 601C417 601 404 601 391 601C378 601 365 601 352 601C339 601 326 601 313 601C300 601 287 601 274 601C261 601 248 601 235 601C222 601 209 601 196 601C183 601 170 601 156.8 601C143.7 601 130.3 601 117.2 601C104 601 91 601 78 601C65 601 52 601 39 601C26 601 13 601 6.5 601L0 601Z" fill="#242dc7"></path></svg>