<svg width="21" height="20" viewBox="0 0 21 20" fill="none" xmlns="http://www.w3.org/2000/svg">
<path d="M4.215 15.3747L4.32125 15.2265L9.33375 5.71778L9.34437 5.61716L7.135 1.46716C7.09455 1.39127 7.03126 1.33002 6.95409 1.29207C6.87692 1.25413 6.78977 1.24141 6.70497 1.25571C6.62018 1.27002 6.54202 1.31063 6.48157 1.37179C6.42112 1.43295 6.38143 1.51157 6.36812 1.59653L4.215 15.3747Z" fill="#FFC24A"/>
<path d="M4.2775 15.2626L4.3575 15.1064L9.31812 5.69636L7.11437 1.53011C7.07803 1.45766 7.01919 1.39893 6.94667 1.36273C6.87414 1.32652 6.79184 1.31479 6.71209 1.32929C6.63234 1.34379 6.55944 1.38374 6.5043 1.44316C6.44916 1.50257 6.41476 1.57825 6.40625 1.65886L4.2775 15.2626Z" fill="#FFA712"/>
<path d="M10.955 8.75614L12.6 7.06864L10.9544 3.93051C10.9182 3.86297 10.8643 3.80652 10.7985 3.76717C10.7328 3.72781 10.6576 3.70703 10.5809 3.70703C10.5043 3.70703 10.4291 3.72781 10.3633 3.76717C10.2976 3.80652 10.2437 3.86297 10.2075 3.93051L9.32812 5.60676V5.74989L10.955 8.75614Z" fill="#F4BD62"/>
<path d="M10.9256 8.68751L12.525 7.05001L10.9256 4.00002C10.8994 3.934 10.8547 3.87696 10.7969 3.83578C10.739 3.7946 10.6705 3.77104 10.5995 3.76793C10.5285 3.76483 10.4582 3.78231 10.397 3.81828C10.3357 3.85425 10.2862 3.90716 10.2544 3.97064L9.37061 5.67627L9.34436 5.76314L10.9256 8.68751Z" fill="#FFA50E"/>
<path d="M4.21625 15.3758L4.26437 15.327L4.43875 15.2564L10.8512 8.86766L10.9325 8.64641L9.33312 5.59766L4.21625 15.3758Z" fill="#F6820C"/>
<path d="M11.16 18.5972L16.965 15.3603L15.3062 5.15346C15.2944 5.08151 15.2629 5.01422 15.2152 4.95899C15.1676 4.90376 15.1057 4.86272 15.0363 4.84038C14.9669 4.81803 14.8926 4.81525 14.8217 4.83233C14.7508 4.84941 14.686 4.8857 14.6344 4.93721L4.215 15.3747L9.98562 18.5966C10.165 18.6967 10.3671 18.7492 10.5725 18.7492C10.7779 18.7492 10.98 18.6967 11.1594 18.5966" fill="#FDE068"/>
<path d="M16.9119 15.3336L15.2669 5.20356C15.264 5.13474 15.2407 5.06833 15.2 5.01273C15.1594 4.95713 15.1031 4.91485 15.0384 4.89123C14.9737 4.8676 14.9035 4.86371 14.8365 4.88004C14.7696 4.89636 14.7091 4.93217 14.6625 4.98294L4.2775 15.3554L9.98437 18.5429C10.1623 18.6422 10.3628 18.6943 10.5666 18.6943C10.7704 18.6943 10.9708 18.6422 11.1487 18.5429L16.9119 15.3336Z" fill="#FCCA3F"/>
<path d="M11.16 18.5003C10.9806 18.6004 10.7786 18.653 10.5731 18.653C10.3677 18.653 10.1656 18.6004 9.98625 18.5003L4.2625 15.3266L4.215 15.3753L9.98562 18.5972C10.165 18.6973 10.3671 18.7499 10.5725 18.7499C10.7779 18.7499 10.98 18.6973 11.1594 18.5972L16.965 15.3609L16.9506 15.2734L11.16 18.5003Z" fill="#EEAB37"/>
</svg>
