<svg width="97" height="100" viewBox="0 0 97 100" fill="none" xmlns="http://www.w3.org/2000/svg">
<path d="M0 0H96.242V100H0V0Z" fill="#F7DF1E"/>
<path d="M25.3058 83.5668L32.6709 78.9355C34.0918 81.5532 35.3843 83.7679 38.4847 83.7679C41.4566 83.7679 43.3303 82.56 43.3303 77.8616V45.9092H52.3746V77.9944C52.3746 87.7277 46.8836 92.1581 38.8724 92.1581C31.6373 92.1581 27.4375 88.2646 25.3057 83.566" fill="black"/>
<path d="M57.2869 82.56L64.6511 78.1297C66.5896 81.4192 69.1092 83.8355 73.5666 83.8355C77.3141 83.8355 79.7038 81.8887 79.7038 79.2036C79.7038 75.9816 77.249 74.8403 73.1142 72.9614L70.8538 71.9538C64.3284 69.0679 59.9998 65.4432 59.9998 57.7906C59.9998 50.7424 65.168 45.3721 73.2438 45.3721C78.9936 45.3721 83.1282 47.4532 86.0996 52.8905L79.0577 57.589C77.5072 54.7029 75.828 53.5619 73.2439 53.5619C70.5951 53.5619 68.9153 55.3071 68.9153 57.589C68.9153 60.4084 70.5951 61.5498 74.471 63.2952L76.7319 64.3021C84.4198 67.7257 88.7484 71.2159 88.7484 79.0694C88.7484 87.5278 82.3527 92.159 73.7606 92.159C65.3622 92.159 59.9354 87.9974 57.287 82.56" fill="black"/>
</svg>
