<svg width="44" height="24" viewBox="0 0 44 24" fill="none" xmlns="http://www.w3.org/2000/svg">
<g clip-path="url(#clip0_203_2)">
<path d="M13.3849 15.8724C15.5823 15.8724 17.3636 14.0911 17.3636 11.8936C17.3636 9.69635 15.5823 7.91504 13.3848 7.91504C11.1876 7.91504 9.40625 9.69618 9.40625 11.8937C9.40625 14.0911 11.1876 15.8724 13.3849 15.8724ZM3.98088 23.8296C6.17825 23.8296 7.95957 22.0485 7.95957 19.8509C7.95957 17.6537 6.17825 15.8724 3.98071 15.8724C1.78368 15.8724 0.00219727 17.6536 0.00219727 19.8509C0.00219727 22.0483 1.78334 23.8296 3.98088 23.8296ZM39.9092 23.8296C42.1066 23.8296 43.8879 22.0485 43.8879 19.8509C43.8879 17.6537 42.1068 15.8724 39.9092 15.8724C37.7119 15.8724 35.9305 17.6536 35.9305 19.8509C35.9305 22.0483 37.7119 23.8298 39.9094 23.8298L39.9092 23.8296Z" fill="black"/>
<path d="M26.8419 12.0612C26.7147 10.7319 26.6499 9.62554 25.6316 8.84794C24.3421 7.86326 22.8812 8.50217 21.0819 7.85263C19.3136 7.42491 18.0022 5.85514 18.0022 3.984C18.0022 1.78371 19.8156 0 22.0524 0C23.7092 0 25.1336 0.978343 25.7611 2.37994C26.7212 4.20394 26.0971 6.06 27.3036 6.99497C28.7321 8.10206 30.6581 7.29137 32.8071 8.34034C33.493 8.65512 34.0773 9.15537 34.494 9.78463C34.9194 10.4272 35.1458 11.181 35.1451 11.9517C35.1451 13.8228 33.8336 15.3927 32.0655 15.8205C30.266 16.47 28.8051 15.8311 27.5156 16.8158C26.0653 17.9232 26.8417 19.7758 25.6597 21.7327C24.9889 23.0215 23.6254 23.9035 22.0524 23.9035C19.8156 23.9035 18.0022 22.1198 18.0022 19.9195C18.0022 18.3213 18.9591 16.9428 20.3401 16.3082C22.4892 15.259 24.415 16.0699 25.8437 14.9628C26.6677 14.3241 26.8419 13.3389 26.8419 12.0612Z" fill="#D0021B"/>
</g>
<defs>
<clipPath id="clip0_203_2">
<rect width="43.89" height="24" fill="white"/>
</clipPath>
</defs>
</svg>
