<svg width="21" height="20" viewBox="0 0 21 20" fill="none" xmlns="http://www.w3.org/2000/svg">
<g clip-path="url(#clip0_304_4)">
<path d="M14.5426 13.9125C15.317 13.8324 15.9044 13.1648 15.8777 12.3637C15.8511 11.5626 15.1834 10.9217 14.3824 10.9217H14.329C13.5012 10.9484 12.8603 11.6427 12.8871 12.4705C12.9138 12.8711 13.0739 13.2182 13.3143 13.4585C12.4064 15.2477 11.0179 16.5561 8.93509 17.651C7.51984 18.3987 6.05124 18.6657 4.58263 18.4789C3.38099 18.3186 2.4464 17.7846 1.85886 16.9033C1.00443 15.5948 0.924351 14.1795 1.64533 12.7643C2.15271 11.7495 2.9537 11.0018 3.46107 10.628C3.35427 10.2808 3.19402 9.69336 3.11394 9.26615C-0.757944 12.07 -0.35737 15.8619 0.817548 17.651C1.6987 18.9862 3.48779 19.814 5.46378 19.814C5.99779 19.814 6.53181 19.7606 7.06591 19.6271C10.4839 18.9595 13.074 16.93 14.5426 13.9125ZM19.2423 10.6013C17.2129 8.22467 14.2222 6.91623 10.8043 6.91623H10.3771C10.1367 6.43557 9.62935 6.11508 9.06861 6.11508H9.01517C8.18747 6.1418 7.54665 6.83607 7.57329 7.66393C7.60001 8.465 8.26755 9.1059 9.06861 9.1059H9.12197C9.70943 9.07918 10.2168 8.70533 10.4304 8.19795H10.9111C12.9405 8.19795 14.863 8.78541 16.5988 9.93369C17.9339 10.8149 18.8952 11.9632 19.4292 13.3517C19.8831 14.4733 19.8564 15.5681 19.3757 16.5028C18.6281 17.918 17.3731 18.6925 15.7175 18.6925C14.6494 18.6925 13.6348 18.372 13.1007 18.1316C12.807 18.3987 12.2729 18.8259 11.899 19.093C13.0473 19.627 14.2222 19.9208 15.3437 19.9208C17.9071 19.9208 19.803 18.5055 20.524 17.0902C21.2984 15.5414 21.2449 12.8711 19.2423 10.6013ZM5.67738 14.3664C5.7041 15.1675 6.37165 15.8084 7.17271 15.8084H7.22615C8.05394 15.7817 8.69476 15.0874 8.66804 14.2596C8.6414 13.4584 7.97378 12.8176 7.17271 12.8176H7.11935C7.06591 12.8176 6.98574 12.8176 6.93247 12.8443C5.83763 11.0284 5.38369 9.05246 5.54394 6.91615C5.65066 5.31393 6.18476 3.92533 7.11935 2.77705C7.89369 1.78902 9.38902 1.30836 10.4038 1.28172C13.2342 1.22828 14.4357 4.75311 14.5159 6.16844C14.863 6.24852 15.4505 6.43549 15.8511 6.56902C15.5306 2.24311 12.8603 0 10.297 0C7.89369 0 5.67738 1.73574 4.79615 4.29926C3.56788 7.7173 4.36894 11.0018 5.86427 13.592C5.73083 13.7789 5.65066 14.0726 5.67738 14.3664Z" fill="#764ABC"/>
</g>
<defs>
<clipPath id="clip0_304_4">
<rect width="20.99" height="20" fill="white"/>
</clipPath>
</defs>
</svg>
