<svg width="92" height="104" viewBox="0 0 92 104" fill="none" xmlns="http://www.w3.org/2000/svg">
<path d="M45.9999 0L91.9561 25.9958V78.0042L45.9999 104L0.0437012 78.0042V25.9958L45.9999 0Z" fill="white"/>
<path d="M83.7535 76.201L47.5264 96.7161V80.7618L70.1056 68.3278L83.7535 76.201ZM86.2334 73.9639V31.0946L72.9843 38.742V66.3157L86.2334 73.9639ZM8.10777 76.2006L44.3353 96.6993V80.7446L21.7561 68.3278L8.10777 76.201V76.2006ZM5.62793 73.9639V31.0946L18.8773 38.742V66.3157L5.62793 73.9639ZM7.17177 28.32L44.3353 7.30114V22.736L20.5249 35.8288L20.3339 35.9329L7.17177 28.32ZM84.6726 28.32L47.5264 7.30078V22.7356L71.3195 35.8457L71.5101 35.9498L84.6726 28.3193V28.32Z" fill="#8ED6FB"/>
<path d="M44.3352 77.1193L22.068 64.8584V40.5971L44.3352 53.4476V77.1193ZM47.5263 77.1193L69.7935 64.8759V40.5971L47.5263 53.4476V77.1193ZM23.5594 37.7876L45.9308 25.4922L68.2842 37.7876L45.9308 50.6902L23.5594 37.7876Z" fill="#1C78C0"/>
</svg>
