<svg width="16" height="12" viewBox="0 0 16 12" fill="none" xmlns="http://www.w3.org/2000/svg">
<path d="M7.82641 0.397003L0.542811 5.608C0.47785 5.65453 0.424902 5.71586 0.388349 5.78691C0.351797 5.85796 0.33269 5.9367 0.332611 6.0166V6.0178C0.332779 6.098 0.352083 6.17701 0.388921 6.24825C0.425758 6.31949 0.479065 6.38091 0.544411 6.4274L7.82801 11.6048C7.90331 11.6583 7.99191 11.6901 8.08407 11.6965C8.17623 11.703 8.26838 11.6839 8.35041 11.6414C8.43256 11.5992 8.50145 11.535 8.54948 11.4561C8.59751 11.3772 8.62282 11.2866 8.62261 11.1942V8.7576L15.1644 8.7578C15.2305 8.75783 15.2959 8.74483 15.357 8.71955C15.418 8.69427 15.4735 8.6572 15.5202 8.61047C15.5669 8.56373 15.604 8.50825 15.6292 8.44719C15.6545 8.38612 15.6675 8.32068 15.6674 8.2546L15.6672 3.7464C15.6672 3.68031 15.6542 3.61487 15.629 3.55381C15.6037 3.49274 15.5666 3.43726 15.5199 3.39053C15.4732 3.3438 15.4177 3.30673 15.3566 3.28145C15.2955 3.25617 15.2301 3.24318 15.164 3.2432H8.62281V0.806003C8.62281 0.618003 8.51681 0.445403 8.34941 0.358603C8.26717 0.316174 8.17479 0.297306 8.0825 0.304082C7.9902 0.310859 7.90158 0.343016 7.82641 0.397003Z" fill="black"/>
</svg>
