<svg width="124" height="99" viewBox="0 0 124 99" fill="none" xmlns="http://www.w3.org/2000/svg">
<path d="M25.8236 0C18.7617 0 13.536 6.18105 13.77 12.8842C13.9948 19.3239 13.7028 27.6651 11.6031 34.4669C9.49717 41.2885 5.93503 45.6097 0.117065 46.1647V52.4284C5.93503 52.9834 9.49717 57.3046 11.6031 64.1267C13.7028 70.9285 13.9948 79.2687 13.77 85.7089C13.536 92.4111 18.7617 98.5931 25.8246 98.5931H98.1856C105.248 98.5931 110.472 92.4121 110.238 85.7089C110.014 79.2692 110.306 70.9285 112.405 64.1267C114.513 57.3051 118.065 52.9829 123.883 52.4284V46.1647C118.065 45.6097 114.513 41.2885 112.406 34.4669C110.306 27.666 110.014 19.3244 110.238 12.8842C110.472 6.18201 105.248 0 98.1856 0H25.8227H25.8236ZM84.0265 60.6903C84.0265 69.9205 77.142 75.518 65.7169 75.518H46.2673C45.711 75.5179 45.1776 75.2968 44.7843 74.9034C44.391 74.51 44.17 73.9766 44.17 73.4203V25.1728C44.1699 24.8973 44.2242 24.6245 44.3296 24.3699C44.4349 24.1154 44.5895 23.884 44.7843 23.6892C44.9791 23.4944 45.2103 23.3398 45.4649 23.2343C45.7194 23.1289 45.9922 23.0746 46.2677 23.0746H65.6057C75.1323 23.0746 81.3844 28.2356 81.3844 36.1585C81.3844 41.7198 77.1783 46.6984 71.8201 47.5701V47.8607C79.115 48.6608 84.0265 53.7125 84.0265 60.6903ZM63.5955 29.7246H52.5063V45.3887H61.8468C69.0668 45.3887 73.0486 42.4812 73.0486 37.284C73.0486 32.4141 69.6242 29.7246 63.5955 29.7246ZM52.5063 51.6041V68.8661H64.004C71.5208 68.8661 75.5036 65.8498 75.5036 60.1807C75.5036 54.5107 71.4101 51.6031 63.5205 51.6031H52.5063V51.6041Z" fill="#7E13F8"/>
</svg>
