<svg width="20" height="20" viewBox="0 0 20 20" fill="none" xmlns="http://www.w3.org/2000/svg">
<path d="M0.5925 8.5825L6.3725 2.7925L8.0625 4.4925C7.8225 5.3425 8.2125 6.2725 8.9925 6.7225V12.2625C8.3925 12.6025 7.9925 13.2525 7.9925 13.9925C7.9925 14.5229 8.20321 15.0316 8.57829 15.4067C8.95336 15.7818 9.46207 15.9925 9.9925 15.9925C10.5229 15.9925 11.0316 15.7818 11.4067 15.4067C11.7818 15.0316 11.9925 14.5229 11.9925 13.9925C11.9925 13.2525 11.5925 12.6025 10.9925 12.2625V7.4025L13.0625 9.4925C12.9925 9.6425 12.9925 9.8125 12.9925 9.9925C12.9925 10.5229 13.2032 11.0316 13.5783 11.4067C13.9534 11.7818 14.4621 11.9925 14.9925 11.9925C15.5229 11.9925 16.0316 11.7818 16.4067 11.4067C16.7818 11.0316 16.9925 10.5229 16.9925 9.9925C16.9925 9.46207 16.7818 8.95336 16.4067 8.57829C16.0316 8.20321 15.5229 7.9925 14.9925 7.9925C14.8125 7.9925 14.6425 7.9925 14.4925 8.0625L11.9225 5.4925C12.0467 5.02934 11.9985 4.53685 11.787 4.10649C11.5755 3.67614 11.215 3.33716 10.7725 3.1525C10.3425 2.9925 9.8925 2.9525 9.4925 3.0625L7.7925 1.3725L8.5825 0.5925C9.3625 -0.1975 10.6225 -0.1975 11.4025 0.5925L19.3925 8.5825C20.1825 9.3625 20.1825 10.6225 19.3925 11.4025L11.4025 19.3925C10.6225 20.1825 9.3625 20.1825 8.5825 19.3925L0.5925 11.4025C-0.1975 10.6225 -0.1975 9.3625 0.5925 8.5825Z" fill="#F05033"/>
</svg>
