<svg width="24" height="24" viewBox="0 0 24 24" fill="none" xmlns="http://www.w3.org/2000/svg">
<path d="M20.3168 11.8391C20.3168 11.3207 20.1108 10.8236 19.7443 10.457C19.3778 10.0905 18.8806 9.88456 18.3623 9.88456C18.2936 9.88449 18.225 9.88799 18.1568 9.89506L20.8418 1.97656H9.432L12.1133 9.88831C12.0743 9.88831 12.0345 9.88456 11.9948 9.88456C11.528 9.88403 11.0765 10.0505 10.7219 10.354C10.3672 10.6574 10.1329 11.0777 10.0612 11.5389C9.98952 12.0001 10.0853 12.4718 10.3311 12.8685C10.5769 13.2652 10.9566 13.5609 11.4015 13.7021C10.9857 14.4179 10.4681 15.0695 9.86475 15.6363C9.07941 16.3871 8.14636 16.9661 7.125 17.3366C6.55276 17.0654 6.10521 16.5865 5.87327 15.9973C5.64133 15.408 5.6424 14.7526 5.87625 14.1641C5.934 14.0291 5.9925 13.8926 6.048 13.7561C6.48379 13.6534 6.87116 13.4044 7.14538 13.0504C7.41959 12.6965 7.56405 12.2592 7.5546 11.8116C7.54516 11.364 7.38239 10.9332 7.09349 10.5912C6.80459 10.2492 6.40706 10.0166 5.96733 9.93248C5.5276 9.84832 5.07231 9.91762 4.67753 10.1288C4.28275 10.34 3.97241 10.6802 3.79835 11.0927C3.62429 11.5052 3.59707 11.965 3.72123 12.3951C3.84539 12.8253 4.11341 13.1998 4.4805 13.4561C3.85662 14.5873 3.38048 15.7939 3.06375 17.0463C2.79825 18.6476 3.06375 20.3463 4.4475 21.3071C7.6725 23.5428 11.1743 19.9211 14.8658 19.0113C16.2038 18.6813 17.6723 18.7346 18.8505 18.0521C19.2762 17.8096 19.6433 17.4764 19.9257 17.0762C20.2082 16.6759 20.399 16.2184 20.4848 15.7361C20.5631 15.2765 20.5484 14.8058 20.4413 14.352C20.3342 13.8983 20.1371 13.4706 19.8615 13.0946C20.1555 12.7432 20.3164 12.2995 20.316 11.8413L20.3168 11.8391ZM13.95 11.8496V11.8428C13.9506 11.5065 13.8641 11.1757 13.699 10.8826C13.534 10.5896 13.2959 10.3442 13.008 10.1703L15.141 5.84956L17.2785 10.2101C17.0103 10.3883 16.7905 10.6301 16.6385 10.9139C16.4866 11.1978 16.4073 11.5148 16.4078 11.8368V11.8796L13.95 11.8496Z" fill="#C63D14"/>
<path d="M20.7945 11.8395C20.7937 11.2728 20.5954 10.7241 20.2335 10.2879C19.8717 9.85174 19.3691 9.55542 18.8122 9.45L21.5077 1.5H8.76675L11.4667 9.46575C10.9954 9.57111 10.5661 9.8145 10.2337 10.1649C9.90121 10.5153 9.68068 10.9567 9.60021 11.433C9.51974 11.9092 9.58297 12.3986 9.78183 12.8388C9.98069 13.2789 10.3062 13.6499 10.7167 13.9042C10.3776 14.4081 9.98312 14.8725 9.54075 15.2888C8.85598 15.9439 8.05129 16.4608 7.17075 16.8113C6.75752 16.5714 6.44427 16.191 6.28815 15.7394C6.13202 15.2878 6.14341 14.7951 6.32025 14.3513L6.35025 14.2815L6.40575 14.1503C6.90561 13.9769 7.33539 13.6455 7.63 13.206C7.92461 12.7666 8.06801 12.2431 8.03847 11.7149C8.00894 11.1867 7.80809 10.6825 7.46633 10.2786C7.12457 9.87476 6.66052 9.59327 6.14445 9.47677C5.62838 9.36027 5.08841 9.4151 4.60629 9.63297C4.12418 9.85083 3.72619 10.2199 3.47259 10.6842C3.219 11.1485 3.1236 11.6828 3.20086 12.2062C3.27812 12.7296 3.52381 13.2135 3.90075 13.5848C3.81975 13.758 3.73425 13.9335 3.6465 14.1143C3.16022 15.0083 2.80652 15.9684 2.5965 16.9642C2.24775 19.0642 2.81025 20.7465 4.17975 21.6953C4.91493 22.221 5.79669 22.5025 6.7005 22.5C8.2995 22.5 9.91725 21.6968 11.5005 20.9108C12.6067 20.3091 13.7738 19.8269 14.982 19.4722C15.4147 19.3657 15.8602 19.3012 16.332 19.233C17.2931 19.1562 18.2303 18.8944 19.092 18.462C19.578 18.1844 19.997 17.8034 20.3193 17.3458C20.6416 16.8883 20.8594 16.3655 20.9572 15.8145C21.1166 14.8783 20.9326 13.9161 20.439 13.1047C20.6725 12.7238 20.7958 12.2856 20.7952 11.8387L20.7945 11.8395ZM19.8397 11.8395C19.8397 12.1317 19.7531 12.4174 19.5907 12.6604C19.4284 12.9033 19.1976 13.0927 18.9277 13.2045C18.6577 13.3164 18.3606 13.3456 18.074 13.2886C17.7874 13.2316 17.5241 13.0909 17.3175 12.8843C17.1109 12.6776 16.9701 12.4144 16.9131 12.1277C16.8561 11.8411 16.8854 11.5441 16.9972 11.2741C17.109 11.0041 17.2984 10.7734 17.5414 10.611C17.7844 10.4487 18.07 10.362 18.3622 10.362C18.754 10.3624 19.1296 10.5182 19.4066 10.7952C19.6836 11.0722 19.8394 11.4478 19.8397 11.8395ZM20.175 2.45475L17.7945 9.47475C17.6926 9.49941 17.5923 9.53073 17.4945 9.5685L15.1432 4.7685L12.7845 9.54C12.6818 9.50442 12.5768 9.47585 12.4702 9.4545L10.098 2.45475H20.175ZM11.9947 10.362C12.287 10.362 12.5726 10.4487 12.8156 10.611C13.0586 10.7734 13.248 11.0041 13.3598 11.2741C13.4716 11.5441 13.5009 11.8411 13.4439 12.1277C13.3868 12.4144 13.2461 12.6776 13.0395 12.8843C12.8329 13.0909 12.5696 13.2316 12.283 13.2886C11.9964 13.3456 11.6993 13.3164 11.4293 13.2045C11.1594 13.0927 10.9286 12.9033 10.7663 12.6604C10.6039 12.4174 10.5172 12.1317 10.5172 11.8395C10.5176 11.4478 10.6734 11.0722 10.9504 10.7952C11.2274 10.5182 11.603 10.3624 11.9947 10.362ZM5.60325 10.3763C5.8956 10.3764 6.18133 10.4633 6.42429 10.6259C6.66724 10.7885 6.8565 11.0195 6.9681 11.2897C7.0797 11.5599 7.10863 11.8572 7.05124 12.1438C6.99384 12.4305 6.85269 12.6937 6.64565 12.9001C6.43861 13.1065 6.175 13.2468 5.88816 13.3034C5.60133 13.3599 5.30418 13.3301 5.03431 13.2176C4.76444 13.1052 4.53399 12.9152 4.37213 12.6718C4.21026 12.4283 4.12426 12.1423 4.125 11.85C4.1254 11.4583 4.28119 11.0827 4.55819 10.8057C4.83519 10.5287 5.21076 10.3729 5.6025 10.3725L5.60325 10.3763ZM20.016 15.6517C19.9419 16.0652 19.7777 16.4572 19.5352 16.8002C19.2927 17.1431 18.9778 17.4285 18.6127 17.6362C17.8553 18.004 17.0351 18.2252 16.1955 18.288C15.7215 18.3563 15.2317 18.4267 14.7525 18.5452C13.4767 18.9147 12.2446 19.4209 11.0775 20.055C8.7045 21.2332 6.6525 22.251 4.7235 20.9122C3.30825 19.9312 3.3735 18.1163 3.5385 17.1218C3.73267 16.2167 4.05651 15.3445 4.5 14.532L4.7025 14.1127C4.90396 14.1933 5.11537 14.2463 5.331 14.2703C5.14011 14.9445 5.19345 15.6645 5.4816 16.3032C5.76976 16.9419 6.27421 17.4584 6.906 17.7615L7.08975 17.856L7.284 17.787C8.36752 17.3959 9.3574 16.7828 10.1902 15.987C10.7404 15.4695 11.2236 14.8852 11.6287 14.2477C12.1471 14.3266 12.677 14.2357 13.1395 13.9887C13.602 13.7417 13.9722 13.3517 14.1949 12.8771C14.4176 12.4024 14.4808 11.8685 14.3752 11.3549C14.2695 10.8414 14.0007 10.3757 13.6087 10.0275L15.1372 6.93675L16.6815 10.0868C16.2421 10.5102 15.9781 11.0834 15.942 11.6926C15.9059 12.3017 16.1003 12.9022 16.4865 13.3746C16.8727 13.847 17.4226 14.1568 18.0268 14.2424C18.6309 14.328 19.2452 14.1832 19.7475 13.8367C20.026 14.3989 20.1192 15.0348 20.0137 15.6533L20.016 15.6517Z" fill="white"/>
</svg>
