<svg width="106" height="100" viewBox="0 0 106 100" fill="none" xmlns="http://www.w3.org/2000/svg">
<path d="M0 49.5504C0 57.9044 7.80178 65.7033 20.1019 70.0992C17.6457 83.0286 19.6617 93.4496 26.3955 97.5103C33.3171 101.684 43.6286 98.7949 53.4155 89.8497C62.9556 98.4337 72.5975 101.812 79.325 97.7398C86.2399 93.5542 88.3432 82.4263 85.819 69.0933C98.6303 64.6644 105.797 58.0144 105.797 49.5504C105.797 41.39 97.9803 34.3302 85.846 29.9624C88.5634 16.0784 86.2609 5.91019 79.2484 1.68185C72.4877 -2.39453 62.7338 1.15845 53.0534 9.96729C42.9826 0.617401 33.325 -2.23724 26.3193 2.00343C19.5651 6.09141 17.6378 16.7018 20.1019 29.8706C8.21711 34.2034 0 41.4226 0 49.5504Z" fill="white"/>
<path d="M83.2748 34.2991C82.3001 33.9483 81.2901 33.6164 80.2502 33.3026C80.4212 32.5732 80.578 31.8532 80.7175 31.1455C83.007 19.5249 81.5101 10.1633 76.3983 7.08107C71.4968 4.1256 63.4807 7.20715 55.3849 14.574C54.6064 15.2824 53.8257 16.0325 53.0453 16.8185C52.5254 16.2984 52.0063 15.7959 51.4885 15.3151C43.0038 7.43798 34.4992 4.11843 29.3925 7.2096C24.4956 10.1736 23.0455 18.9745 25.1064 29.9874C25.3054 31.0511 25.5381 32.1374 25.8011 33.2419C24.5975 33.5991 23.4355 33.98 22.3237 34.3852C12.3763 38.0114 6.02344 43.6947 6.02344 49.5897C6.02344 55.6781 12.8432 61.7849 23.2042 65.4878C24.0218 65.78 24.8703 66.0563 25.7446 66.3186C25.4608 67.5131 25.2139 68.6837 25.0067 69.8254C23.0416 80.6472 24.5762 89.2401 29.46 92.1854C34.5046 95.2271 42.9707 92.1006 51.2145 84.5658C51.8661 83.9702 52.52 83.3386 53.1751 82.6766C54.0242 83.5315 54.8719 84.3406 55.7152 85.0995C63.7003 92.2844 71.5869 95.1857 76.4662 92.2321C81.5057 89.1817 83.1435 79.9509 81.0172 68.7201C80.8548 67.8623 80.6658 66.9861 80.4536 66.0942C81.0481 65.9104 81.6318 65.7207 82.2009 65.5235C92.9722 61.7919 99.9803 55.7594 99.9803 49.5897C99.9803 43.6734 93.4225 37.9518 83.2748 34.2991Z" fill="#53C1DE"/>
<path d="M80.9386 61.54C80.4249 61.7178 79.8977 61.8897 79.3605 62.0564C78.1715 58.1202 76.5666 53.9347 74.6027 49.6104C76.4768 45.389 78.0196 41.2571 79.1754 37.3465C80.1365 37.6373 81.0694 37.944 81.9683 38.2677C90.6629 41.3973 95.9665 46.0245 95.9665 49.5899C95.9665 53.3877 90.2388 58.3178 80.9386 61.54ZM77.0797 69.5354C78.0199 74.5015 78.1542 78.9914 77.5314 82.5014C76.9718 85.6553 75.8465 87.7581 74.455 88.6003C71.494 90.3924 65.1619 88.0629 58.3329 81.9184C57.55 81.214 56.7615 80.4619 55.9704 79.6659C58.6179 76.6384 61.2638 73.1188 63.8462 69.2099C68.3883 68.7885 72.6796 68.0995 76.5711 67.1589C76.7628 67.9673 76.933 68.7602 77.0797 69.5354ZM38.0555 88.2906C35.1625 89.3589 32.8584 89.3895 31.4656 88.5498C28.502 86.7624 27.2699 79.8631 28.9505 70.6084C29.143 69.5485 29.3721 68.4597 29.6362 67.3469C33.4851 68.2368 37.7449 68.8772 42.2979 69.2631C44.8977 73.088 47.62 76.6038 50.3635 79.6822C49.7641 80.2872 49.167 80.8632 48.5733 81.406C44.9279 84.7378 41.2749 87.1017 38.0555 88.2906ZM24.5024 61.5167C19.9209 59.8794 16.1374 57.7514 13.544 55.4293C11.2137 53.3426 10.0371 51.271 10.0371 49.5899C10.0371 46.0126 15.1378 41.4498 23.6449 38.3485C24.6771 37.9721 25.7577 37.6175 26.879 37.2844C28.0547 41.2833 29.597 45.4642 31.4583 49.6921C29.573 53.9827 28.0088 58.2302 26.8215 62.276C26.0221 62.0357 25.2476 61.7829 24.5024 61.5167ZM29.0455 29.1816C27.2797 19.746 28.4524 12.6282 31.4034 10.842C34.5467 8.93928 41.4975 11.6522 48.8233 18.4537C49.2916 18.8885 49.7617 19.3435 50.2332 19.8142C47.5033 22.8792 44.8059 26.3685 42.2292 30.1709C37.8103 30.5991 33.5804 31.2871 29.6914 32.2083C29.4469 31.1799 29.2303 30.1695 29.0455 29.1816ZM69.5742 39.6456C68.6445 37.9665 67.6901 36.3271 66.7171 34.7325C69.7149 35.1288 72.5871 35.6548 75.2844 36.2985C74.4746 39.0121 73.4653 41.8493 72.2772 44.7579C71.4249 43.0661 70.5235 41.3602 69.5742 39.6456ZM53.0467 22.8136C54.8981 24.9108 56.7521 27.2523 58.5757 29.7928C56.7381 29.702 54.8777 29.6548 53.0019 29.6548C51.1438 29.6548 49.2971 29.701 47.4709 29.7902C49.2963 27.2733 51.1664 24.9349 53.0467 22.8136ZM36.4133 39.6747C35.4846 41.3585 34.5999 43.0551 33.761 44.7548C32.5922 41.8563 31.5922 39.0061 30.7754 36.2541C33.4562 35.6268 36.3148 35.1139 39.2936 34.7252C38.3068 36.3345 37.3445 37.986 36.4133 39.6743V39.6747ZM39.3794 64.7541C36.3018 64.3951 33.4001 63.9086 30.7201 63.2986C31.5499 60.4974 32.5719 57.5864 33.7656 54.6255C34.6066 56.324 35.4948 58.0213 36.4292 59.7088H36.4294C37.3812 61.4279 38.3672 63.1119 39.3794 64.7541ZM53.1577 76.6622C51.2554 74.516 49.3578 72.142 47.5046 69.5883C49.3037 69.6621 51.1378 69.6999 53.0019 69.6999C54.917 69.6999 56.8102 69.6548 58.6736 69.5681C56.8439 72.1677 54.9966 74.5454 53.1577 76.6622ZM72.3155 54.4746C73.5713 57.4675 74.6299 60.3633 75.4705 63.1168C72.7463 63.7666 69.805 64.29 66.706 64.6789C67.6814 63.0627 68.6442 61.3952 69.5903 59.6799C70.5474 57.9445 71.4562 56.2065 72.3155 54.4746ZM66.1135 57.5832C64.6448 60.2459 63.1369 62.7878 61.6061 65.1872C58.8181 65.3957 55.9376 65.503 53.0019 65.503C50.078 65.503 47.2339 65.4081 44.4951 65.2222C42.9026 62.7913 41.362 60.2419 39.9027 57.6061H39.903C38.4475 54.9775 37.1079 52.3266 35.894 49.6907C37.1075 47.0486 38.4436 44.3947 39.8908 41.7708L39.8905 41.7714C41.3414 39.1404 42.8685 36.6034 44.4463 34.1878C47.2406 33.9669 50.1059 33.8517 53.0017 33.8517H53.0019C55.9107 33.8517 58.7798 33.9678 61.5732 34.1906C63.1269 36.5886 64.6436 39.1174 66.1003 41.7486C67.5735 44.4094 68.9268 47.0456 70.1507 49.631C68.9305 52.2609 67.5802 54.9236 66.1135 57.5832ZM74.3935 10.7172C77.5398 12.6143 78.7633 20.2656 76.7865 30.2987C76.6604 30.9389 76.5184 31.591 76.3642 32.2518C72.4662 31.3114 68.2333 30.6115 63.8015 30.1768C61.2198 26.3327 58.5444 22.8379 55.859 19.8123C56.581 19.0861 57.302 18.3936 58.02 17.7401C64.9565 11.4282 71.4396 8.93614 74.3935 10.7172Z" fill="white"/>
<path d="M53.0033 40.8184C57.6369 40.8184 61.3933 44.7459 61.3933 49.591C61.3933 54.436 57.6369 58.3637 53.0033 58.3637C48.3697 58.3637 44.6133 54.436 44.6133 49.591C44.6133 44.7459 48.3697 40.8184 53.0033 40.8184Z" fill="#53C1DE"/>
</svg>
