  <svg
    width="100%"
    height="100%"
    id="svg"
    viewBox="0 0 1440 390"
    xmlns="http://www.w3.org/2000/svg"
    className="transition duration-300 ease-in-out delay-150"
  >
    <path
      d="M 0,400 C 0,400 0,80 0,80 C 47.23943661971833,68.59910683613879 94.47887323943667,57.19821367227757 178,54 C 261.52112676056333,50.80178632772243 381.3239436619717,55.806252147028516 449,66 C 516.6760563380283,76.19374785297148 532.2253521126761,91.57677773960839 595,90 C 657.7746478873239,88.42322226039161 767.774647887324,69.88663689453796 841,69 C 914.225352112676,68.11336310546204 950.676056338028,84.87667468223978 1010,84 C 1069.323943661972,83.12332531776022 1151.5211267605634,64.60666437650292 1227,61 C 1302.4788732394366,57.39333562349708 1371.2394366197182,68.69666781174854 1440,80 C 1440,80 1440,400 1440,400 Z"
      stroke="none"
      strokeWidth="0"
      fill="#dedede"
      fillOpacity="0.265"
      className="transition-all duration-300 ease-in-out delay-150 path-0"
      transform="rotate(-180 720 150)"
    />
    <path
      d="M 0,400 C 0,400 0,160 0,160 C 68.12641703881829,151.63517691514943 136.25283407763658,143.2703538302989 198,142 C 259.7471659223634,140.7296461697011 315.11508072827195,146.55376159395396 377,157 C 438.88491927172805,167.44623840604604 507.28684300927523,182.51459979388528 581,176 C 654.7131569907248,169.48540020611472 733.7375472346272,141.38783923050497 822,135 C 910.2624527653728,128.61216076949503 1007.7629680522159,143.93404328409483 1067,147 C 1126.237031947784,150.06595671590517 1147.2105805565097,140.87598763311576 1203,141 C 1258.7894194434903,141.12401236688424 1349.3947097217451,150.56200618344212 1440,160 C 1440,160 1440,400 1440,400 Z"
      stroke="none"
      strokeWidth="0"
      fill="#dedede"
      fillOpacity="0.4"
      className="transition-all duration-300 ease-in-out delay-150 path-1"
      transform="rotate(-180 720 160)"
    />
    <path
      d="M 0,400 C 0,400 0,240 0,240 C 64.87186533837169,243.52868430092752 129.74373067674338,247.05736860185502 199,237 C 268.2562693232566,226.94263139814498 341.89694263139813,203.29920989350734 407,213 C 472.10305736860187,222.70079010649266 528.6684987976639,265.74579182411543 592,264 C 655.3315012023361,262.25420817588457 725.4290621779458,215.7176228100309 797,213 C 868.5709378220542,210.2823771899691 941.6152524905528,251.3837169357609 1023,268 C 1104.3847475094472,284.6162830642391 1194.109927859842,276.74750944692545 1265,268 C 1335.890072140158,259.25249055307455 1387.945036070079,249.62624527653728 1440,240 C 1440,240 1440,400 1440,400 Z"
      stroke="none"
      strokeWidth="0"
      fill="#dedede"
      fillOpacity="0.53"
      className="transition-all duration-300 ease-in-out delay-150 path-2"
      transform="rotate(-180 720 180)"
    />
    <path
      d="M 0,400 C 0,400 0,320 0,320 C 72.30230161456544,324.6066643765029 144.60460322913087,329.21332875300584 216,330 C 287.3953967708691,330.78667124699416 357.8838886980419,327.7533493644796 424,329 C 490.1161113019581,330.2466506355204 551.8598419787016,335.7732737890759 618,325 C 684.1401580212984,314.2267262109241 754.6767433871521,287.15355547921683 815,291 C 875.3232566128479,294.84644452078317 925.4331844726898,329.612504294057 1000,335 C 1074.5668155273102,340.387495705943 1173.5905187220887,316.39642734455515 1251,309 C 1328.4094812779113,301.60357265544485 1384.2047406389556,310.8017863277224 1440,320 C 1440,320 1440,400 1440,400 Z"
      stroke="none"
      strokeWidth="0"
      fill="#dedede"
      fillOpacity="1"
      className="transition-all duration-300 ease-in-out delay-150 path-3"
      transform="rotate(-180 720 190)"
    />
  </svg>